/* XPM */
static char * perlshare32_xpm[] = {
"32 32 189 2",
"  	c None",
". 	c #0000FE",
"+ 	c #0000FF",
"@ 	c #48DF1E",
"# 	c #4CEB12",
"$ 	c #50F805",
"% 	c #50F904",
"& 	c #51FB02",
"* 	c #38AF4F",
"= 	c #41C934",
"- 	c #4FF30A",
"; 	c #4FF409",
"> 	c #50F40A",
", 	c #4EF10B",
"' 	c #4EF10C",
") 	c #4FF20B",
"! 	c #50F309",
"~ 	c #50F608",
"{ 	c #50F804",
"] 	c #51FC01",
"^ 	c #349F5E",
"/ 	c #4BE716",
"( 	c #42CB32",
"_ 	c #3FC13C",
": 	c #4FF10C",
"< 	c #4DEC11",
"[ 	c #4DEB13",
"} 	c #4DEA12",
"| 	c #4EEC11",
"1 	c #4EEF0D",
"2 	c #50F20B",
"3 	c #50F607",
"4 	c #5AFF00",
"5 	c #48E01D",
"6 	c #3DBB42",
"7 	c #3EBD40",
"8 	c #41C538",
"9 	c #4DE815",
"0 	c #4CE418",
"a 	c #4CE419",
"b 	c #4CE518",
"c 	c #4DE716",
"d 	c #4DE914",
"e 	c #4DEC10",
"f 	c #50F508",
"g 	c #51F904",
"h 	c #50F507",
"i 	c #42C934",
"j 	c #3EBC41",
"k 	c #4CE319",
"l 	c #3CB448",
"m 	c #44CB31",
"n 	c #4BDD1F",
"o 	c #4BDD20",
"p 	c #4BDE1F",
"q 	c #4CE01C",
"r 	c #4CE716",
"s 	c #4DEB12",
"t 	c #52FC01",
"u 	c #51FA03",
"v 	c #4EEE0E",
"w 	c #4EEC10",
"x 	c #3EBB42",
"y 	c #40C03C",
"z 	c #46D22B",
"A 	c #3AAE4F",
"B 	c #47D02C",
"C 	c #48D627",
"D 	c #49D825",
"E 	c #49DA22",
"F 	c #4CE21B",
"G 	c #4DE715",
"H 	c #50F20A",
"I 	c #4EEE0F",
"J 	c #4CEB11",
"K 	c #4CE517",
"L 	c #4ADD20",
"M 	c #3BB14C",
"N 	c #43C537",
"O 	c #41C03D",
"P 	c #3BAC50",
"Q 	c #48D12B",
"R 	c #48D12C",
"S 	c #48D428",
"T 	c #49D924",
"U 	c #51F607",
"V 	c #4EF00D",
"W 	c #4DE814",
"X 	c #4BE31A",
"Y 	c #4BDC20",
"Z 	c #46CC30",
"` 	c #3AAA53",
" .	c #45C636",
"..	c #45C537",
"+.	c #46C735",
"@.	c #46CB32",
"#.	c #47CF2D",
"$.	c #49DA23",
"%.	c #4CE11D",
"&.	c #4DED10",
"*.	c #52FA03",
"=.	c #4FF508",
"-.	c #4BE01C",
";.	c #4ADA23",
">.	c #49D528",
",.	c #42C13B",
"'.	c #45C934",
").	c #44C23A",
"!.	c #43C13B",
"~.	c #44C537",
"{.	c #46CB31",
"].	c #47D12B",
"^.	c #4AD825",
"/.	c #4ADE1E",
"(.	c #4FF408",
"_.	c #4DEE10",
":.	c #4BE01D",
"<.	c #4AD923",
"[.	c #47D32A",
"}.	c #47CC30",
"|.	c #43BF3D",
"1.	c #42BC40",
"2.	c #44C339",
"3.	c #45CA32",
"4.	c #48D02C",
"5.	c #4AD725",
"6.	c #4ADE1F",
"7.	c #48D328",
"8.	c #46CD2F",
"9.	c #45C735",
"0.	c #3EB349",
"a.	c #4DEB11",
"b.	c #4EF00E",
"c.	c #4BE21A",
"d.	c #49D626",
"e.	c #46C834",
"f.	c #43C03C",
"g.	c #42BD3F",
"h.	c #40BA42",
"i.	c #3CB24B",
"j.	c #51F804",
"k.	c #4CE617",
"l.	c #49D627",
"m.	c #47D22B",
"n.	c #39AA52",
"o.	c #49D428",
"p.	c #3CB449",
"q.	c #42C438",
"r.	c #4FF00D",
"s.	c #52FB02",
"t.	c #4EEF0E",
"u.	c #4BDF1E",
"v.	c #4ADB22",
"w.	c #49D726",
"x.	c #3FBC41",
"y.	c #3DB646",
"z.	c #3BB14A",
"A.	c #4AE517",
"B.	c #4EED10",
"C.	c #4CE11C",
"D.	c #4BDE1E",
"E.	c #4CE11B",
"F.	c #3DB647",
"G.	c #44CD30",
"H.	c #43CB32",
"I.	c #3DBC41",
"J.	c #50F409",
"K.	c #49E01D",
"L.	c #51F706",
"M.	c #4DEA13",
"N.	c #4CE618",
"O.	c #3BB448",
"P.	c #3FC03D",
"Q.	c #44D12C",
"R.	c #56FF00",
"S.	c #0C24D9",
"T.	c #51F805",
"U.	c #4EF00C",
"V.	c #4EED0F",
"W.	c #42CC31",
"X.	c #3FC13B",
"Y.	c #3FC439",
"Z.	c #51FA02",
"`.	c #50F30A",
" +	c #50F408",
".+	c #3FC538",
"++	c #45D627",
"@+	c #0B23DB",
"#+	c #4BE814",
"                                                                ",
"                                                                ",
"                                                                ",
"            . +                                                 ",
"          .   . + +                                             ",
"          . .   + . + +                                         ",
"            + +   +     @ # $ $ % & &                           ",
"            + . + * = - ; > , ' ) ! ~ { ]                       ",
"            .   ^ / ( _ : < [ } | < 1 2 3 &                     ",
"            + 4 5 6 | 7 8 9 0 a b c d e : f &                   ",
"              g h i j k l m n o p q k r s : 3 t                 ",
"            u ' v w x y z A B C D E n F G e H g                 ",
"            g I J K L M N O P Q R S T n k d 1 f t               ",
"          t U V W X Y Z `  ...+.@.#.S $.%.G &.- *.              ",
"          ] =.I G -.;.>.,.'.).!.~.{.].^./.K < H g               ",
"          t (._.r :.<.[.}.~.|.1.2.3.4.5.6.a } ) g               ",
"          ] =.I G q ;.7.8.9.).!.9.0.3.^./.b a.H g               ",
"          t U b.W c.Y d.R Z e.f.g.h.i.L %.G &.- &               ",
"            j.: s k.:.$.l.m.#.~.n.o.p.q.a d r.) t               ",
"            s.; t.d a u.v.^.d.w.x.y.E z.6.e U A.                ",
"              $ H B.d 0 C.D.n o E.F.G.H.I.J.u K.                ",
"              t L.) I M.G N.a a b L O.d P.Q.R.S.                ",
"                ] T.J.U.V.< } M.< I W.X.: Y.  .                 ",
"                  t Z.L.J.`.) B.H  +*..+++@+. .                 ",
"                        & % $ j.#+@ &.  +   . +                 ",
"                                    + . . .   +                 ",
"                                        . + + + .               ",
"                                            +   +               ",
"                                              .                 ",
"                                                                ",
"                                                                ",
"                                                                "};
