/* XPM */
static char * perlshare16_xpm[] = {
"16 16 75 1",
" 	c None",
".	c #0000FE",
"+	c #0C26D8",
"@	c #4DE617",
"#	c #4BEA12",
"$	c #4FF507",
"%	c #50F605",
"&	c #50F903",
"*	c #102BD3",
"=	c #40C636",
"-	c #41C933",
";	c #4BE517",
">	c #4CE615",
",	c #4CE814",
"'	c #4DED0F",
")	c #50F606",
"!	c #4EF408",
"~	c #4CE813",
"{	c #41C339",
"]	c #3EBA42",
"^	c #4ADB21",
"/	c #4ADB20",
"(	c #4BE21A",
"_	c #4DEB10",
":	c #50F704",
"<	c #4FF309",
"[	c #4BE615",
"}	c #45CC2F",
"|	c #40BC40",
"1	c #42BF3C",
"2	c #47CF2D",
"3	c #49D823",
"4	c #4CE417",
"5	c #4EF00C",
"6	c #4EF10B",
"7	c #4BE319",
"8	c #49D725",
"9	c #44C734",
"0	c #42BE3D",
"a	c #48D328",
"b	c #4AE11B",
"c	c #4EEE0E",
"d	c #51FA02",
"e	c #4EF20B",
"f	c #4CE317",
"g	c #49D724",
"h	c #46CB30",
"i	c #43C239",
"j	c #40BA41",
"k	c #45CB30",
"l	c #4EEF0D",
"m	c #4CEA12",
"n	c #4ADF1E",
"o	c #48D626",
"p	c #47D229",
"q	c #3EB844",
"r	c #3EBC3F",
"s	c #4DE912",
"t	c #4EEE0D",
"u	c #4FF10A",
"v	c #4CE913",
"w	c #4CE219",
"x	c #4BE01C",
"y	c #47D526",
"z	c #44CE2E",
"A	c #41C834",
"B	c #41C735",
"C	c #51FB01",
"D	c #50F506",
"E	c #4EEF0C",
"F	c #4DEC10",
"G	c #42CD2F",
"H	c #3EC23A",
"I	c #0000FF",
"J	c #194FAE",
"                ",
"   .            ",
"    .           ",
"   .+@#$%&      ",
"   *=-;>,')     ",
"   !~{]^/(_:    ",
"   <[}|12345    ",
"   678909abcd   ",
"   efghijk(l    ",
"   )mnopqrst    ",
"    uvwxyzAB    ",
"    CDEF<GHI    ",
"       C JI.    ",
"          ..    ",
"                ",
"                "};
