/* XPM */
static char * perlshare_xpm[] = {
"64 64 367 2",
"  	c None",
". 	c #0000FF",
"+ 	c #0000FE",
"@ 	c #53FE00",
"# 	c #42CF2F",
"$ 	c #41C539",
"% 	c #4BEA14",
"& 	c #51FB03",
"* 	c #51FA03",
"= 	c #51FA04",
"- 	c #51FC02",
"; 	c #52FD01",
"> 	c #52FE00",
", 	c #0001FD",
"' 	c #52FC02",
") 	c #52FA04",
"! 	c #52FA03",
"~ 	c #51F806",
"{ 	c #46D627",
"] 	c #4FF30B",
"^ 	c #50F707",
"/ 	c #50F806",
"( 	c #24708F",
"_ 	c #40C638",
": 	c #41CB33",
"< 	c #51F608",
"[ 	c #50F509",
"} 	c #50F40A",
"| 	c #50F409",
"1 	c #4EF30B",
"2 	c #54FF00",
"3 	c #45D627",
"4 	c #3FC13D",
"5 	c #3FC03E",
"6 	c #45D32B",
"7 	c #50F20C",
"8 	c #50F10D",
"9 	c #4FF10D",
"0 	c #4FF00E",
"a 	c #50F20B",
"b 	c #50F607",
"c 	c #0C23DB",
"d 	c #3FC33B",
"e 	c #4CE915",
"f 	c #42CB33",
"g 	c #3EBE40",
"h 	c #49DE20",
"i 	c #50F00E",
"j 	c #4EEF0F",
"k 	c #4EEE10",
"l 	c #4DEE11",
"m 	c #4EED10",
"n 	c #4EEC13",
"o 	c #4EEC12",
"p 	c #4EEC10",
"q 	c #50F00D",
"r 	c #4FF20C",
"s 	c #4FF30A",
"t 	c #51F509",
"u 	c #40C539",
"v 	c #3EBF3F",
"w 	c #50F608",
"x 	c #3FBF3F",
"y 	c #3EBD41",
"z 	c #3DBB42",
"A 	c #4DEA14",
"B 	c #4EEB13",
"C 	c #4DEB13",
"D 	c #4EEA13",
"E 	c #4DEA15",
"F 	c #4EEA14",
"G 	c #4EEB12",
"H 	c #4DED10",
"I 	c #4FEF0F",
"J 	c #51F904",
"K 	c #3EC03E",
"L 	c #3FC23C",
"M 	c #51F40A",
"N 	c #4CE816",
"O 	c #3DB945",
"P 	c #3EBB43",
"Q 	c #3FBE40",
"R 	c #4FEC11",
"S 	c #4EE816",
"T 	c #4CE717",
"U 	c #4DE617",
"V 	c #4DE618",
"W 	c #4DE717",
"X 	c #4DE716",
"Y 	c #4EE815",
"Z 	c #4EEA15",
"` 	c #4FEF0E",
" .	c #4FF10C",
"..	c #47DA24",
"+.	c #3FBD40",
"@.	c #43CB33",
"#.	c #4FED11",
"$.	c #47D826",
"%.	c #3DB845",
"&.	c #41C13C",
"*.	c #4DE518",
"=.	c #4DE41A",
"-.	c #4CE31B",
";.	c #4CE31A",
">.	c #4CE519",
",.	c #4EE915",
"'.	c #4EED11",
").	c #50F30A",
"!.	c #51F905",
"~.	c #39B14D",
"{.	c #51F508",
"].	c #4FF40A",
"^.	c #43C935",
"/.	c #3DBC42",
"(.	c #3DBA44",
"_.	c #46D528",
":.	c #4DE816",
"<.	c #44CA33",
"[.	c #3EB846",
"}.	c #3CB647",
"|.	c #43C835",
"1.	c #4CE01D",
"2.	c #4DE01E",
"3.	c #4CDF1E",
"4.	c #4BDF1E",
"5.	c #4DDF1E",
"6.	c #4CE11D",
"7.	c #4CE21C",
"8.	c #4DE419",
"9.	c #52F905",
"0.	c #44D12D",
"a.	c #50F30B",
"b.	c #4EF00E",
"c.	c #3EBA44",
"d.	c #3DB846",
"e.	c #4ADD20",
"f.	c #3FBC41",
"g.	c #3DB549",
"h.	c #3DB44A",
"i.	c #48D528",
"j.	c #4BDC21",
"k.	c #4BDC22",
"l.	c #4BDE1F",
"m.	c #4BE21C",
"n.	c #52FB03",
"o.	c #53FD01",
"p.	c #4FF409",
"q.	c #50F10C",
"r.	c #3DBA45",
"s.	c #4DE21B",
"t.	c #4ADC21",
"u.	c #3CB34B",
"v.	c #3CB34A",
"w.	c #4BDB23",
"x.	c #4AD825",
"y.	c #4AD924",
"z.	c #4ADA23",
"A.	c #4ADB22",
"B.	c #4ADD21",
"C.	c #4BDF1F",
"D.	c #4DE519",
"E.	c #4EEC11",
"F.	c #48D727",
"G.	c #3CB549",
"H.	c #3DB548",
"I.	c #40BD40",
"J.	c #4BDD21",
"K.	c #47D32B",
"L.	c #3CB04E",
"M.	c #3CB14C",
"N.	c #3DB449",
"O.	c #49D628",
"P.	c #48D529",
"Q.	c #4AD727",
"R.	c #4BDB21",
"S.	c #4BDE20",
"T.	c #4CE01E",
"U.	c #4CE21B",
"V.	c #4CE518",
"W.	c #4DEA13",
"X.	c #51F607",
"Y.	c #51F706",
"Z.	c #43C736",
"`.	c #3CB24B",
" +	c #42C33A",
".+	c #44C736",
"++	c #3BAE4F",
"@+	c #3FB944",
"#+	c #48D12C",
"$+	c #48D22B",
"%+	c #49D32A",
"&+	c #49D528",
"*+	c #4AD726",
"=+	c #4ADC22",
"-+	c #4EEF0E",
";+	c #52FB02",
">+	c #4DEC11",
",+	c #4DE914",
"'+	c #4CE41A",
")+	c #3FBB42",
"!+	c #3CB24C",
"~+	c #3BB04D",
"{+	c #46CB32",
"]+	c #40BB43",
"^+	c #3BAC51",
"/+	c #3DB14D",
"(+	c #47CE30",
"_+	c #47CE2E",
":+	c #48D02E",
"<+	c #47D02D",
"[+	c #49D925",
"}+	c #4CDE1F",
"|+	c #4BE11C",
"1+	c #51F707",
"2+	c #4CE619",
"3+	c #3DB24B",
"4+	c #3BAF4E",
"5+	c #3CAF4F",
"6+	c #47CC30",
"7+	c #41BA43",
"8+	c #47CB32",
"9+	c #47CA33",
"0+	c #46CC32",
"a+	c #47CD30",
"b+	c #4ADA24",
"c+	c #51F409",
"d+	c #4ADB23",
"e+	c #4BD726",
"f+	c #46CE2F",
"g+	c #3CAC51",
"h+	c #3DB04E",
"i+	c #47CB33",
"j+	c #46C835",
"k+	c #46C736",
"l+	c #46C637",
"m+	c #46C935",
"n+	c #4CDF1F",
"o+	c #53FE01",
"p+	c #4AD627",
"q+	c #49D42A",
"r+	c #43C23B",
"s+	c #3CAE4F",
"t+	c #45C737",
"u+	c #45C835",
"v+	c #45C538",
"w+	c #44C43A",
"x+	c #45C33A",
"y+	c #44C439",
"z+	c #47CE2F",
"A+	c #47D12C",
"B+	c #48D42A",
"C+	c #4ADE20",
"D+	c #4DEC12",
"E+	c #4EE914",
"F+	c #4AD925",
"G+	c #47CF2E",
"H+	c #47CC31",
"I+	c #45C637",
"J+	c #44C03D",
"K+	c #43C03E",
"L+	c #44C13C",
"M+	c #46C934",
"N+	c #46CD31",
"O+	c #48D32B",
"P+	c #4CE618",
"Q+	c #4BDB22",
"R+	c #48D22C",
"S+	c #47CF2F",
"T+	c #45C836",
"U+	c #43BE3F",
"V+	c #43BC41",
"W+	c #43BF3E",
"X+	c #44C23B",
"Y+	c #46CC31",
"Z+	c #48CF2E",
"`+	c #4CE41B",
" @	c #47CD31",
".@	c #45C638",
"+@	c #44C33A",
"@@	c #40BA44",
"#@	c #48D32A",
"$@	c #47D02E",
"%@	c #46CA33",
"&@	c #3CAD50",
"*@	c #3BAC52",
"=@	c #3DB34A",
"-@	c #49D529",
";@	c #4BE11D",
">@	c #48D429",
",@	c #46CD32",
"'@	c #42BC41",
")@	c #42C03D",
"!@	c #3BAD50",
"~@	c #3BAF4F",
"{@	c #3BAA53",
"]@	c #3EB34A",
"^@	c #3BB04E",
"/@	c #3CAF4E",
"(@	c #49D727",
"_@	c #49D627",
":@	c #3CAD51",
"<@	c #3BAD51",
"[@	c #3BAE50",
"}@	c #3DB14C",
"|@	c #3BB24B",
"1@	c #46CD30",
"2@	c #41BE3F",
"3@	c #44C836",
"4@	c #45CE30",
"5@	c #4BD826",
"6@	c #40BB42",
"7@	c #47D22B",
"8@	c #3CB449",
"9@	c #4BE01E",
"0@	c #47D925",
"a@	c #4AD826",
"b@	c #4BDA24",
"c@	c #3CB44A",
"d@	c #4CE11C",
"e@	c #3DB746",
"f@	c #3EB845",
"g@	c #40BF3E",
"h@	c #45D429",
"i@	c #49D924",
"j@	c #3DB648",
"k@	c #41C33B",
"l@	c #45D12D",
"m@	c #44D02E",
"n@	c #53FF00",
"o@	c #4DE31A",
"p@	c #4DE01D",
"q@	c #42C43A",
"r@	c #3DB747",
"s@	c #40C43B",
"t@	c #3DBA43",
"u@	c #3DB944",
"v@	c #43D02E",
"w@	c #3FBC42",
"x@	c #3CB746",
"y@	c #3EBC42",
"z@	c #40C439",
"A@	c #35A15D",
"B@	c #4DED11",
"C@	c #41C638",
"D@	c #3EBE3F",
"E@	c #46D826",
"F@	c #55FF00",
"G@	c #4EEE0F",
"H@	c #43CC32",
"I@	c #42CA34",
"J@	c #51F805",
"K@	c #40C33B",
"L@	c #52F806",
"M@	c #39B14E",
"N@	c #52F903",
"O@	c #39AF50",
"P@	c #4EF30A",
"Q@	c #4AE41A",
"R@	c #46D727",
"S@	c #3EC13D",
"T@	c #40C43A",
"U@	c #277886",
"V@	c #41C538",
"W@	c #49DD21",
"X@	c #1B52AC",
"Y@	c #4CEB13",
"Z@	c #36A757",
"                                                                                                                                ",
"                                                                                                                                ",
"                                                                                                                                ",
"                                                                                                                                ",
"                      .                                                                                                         ",
"                  .     . .                                                                                                     ",
"                  . .   . . .                                                                                                   ",
"                    .     + . . .                                                                                               ",
"                    . +     . . . . .                                                                                           ",
"                    . . +     . . . . . .                                                                                       ",
"                    . . . +   . . . . . . . .                                                                                   ",
"                      . . .     . . .       + .             @                                                                   ",
"                      . . . .     . . .         # $ % & * = = = & & - ; >                                                       ",
"                      . . . . .     + . ,   ' & ) ! ~ { ] ^ ^ ^ ^ / ~ = ) & ;                                                   ",
"                        . . . . .     ( _ : ; ~ ^ < [ } | 1 1 ] } } [ < ^ ~ = & ;                                               ",
"                        . . . . .   2 3 4 5 6 < 1 7 8 9 0 0 0 0 0 9 7 a } [ b ~ * - @                                           ",
"                        . .   + c d e ' f 5 g h i j k l m n o p k k k j q r s t ^ ) & ;                                         ",
"                        . .     u 4 v 9 w x y z A B C D E F F A D B C G H I q 7 } w J & ;                                       ",
"                          +   ; r K 5 L M N O P Q R S T U U V U W X Y Z D C H `  .} w ~ & ;                                     ",
"                          . ) & ~ ..g +.@.#.$.%.%.&.*.=.-.-.-.-.;.=.>.U W ,.D '.j 8 ).w !.& @                                   ",
"                          ~.^ ~ {.].^./.(._.:.<.[.}.|.1.2.3.4.5.2.6.7.;.8.V :.F B j 8 } w 9.'                                   ",
"                          0.a.w ).8 b.x c.d.e.;.f.g.h.i.j.k.k.k.j.e.l.2.m.;.>.X A B j 7 ].^ n.;                                 ",
"                        o.j j p.q.j C T d.[.r.s.t.u.u.v.w.x.x.x.y.z.A.B.C.1.-.D.X F E.0 a t !.n.                                ",
"                        ' ' b.] 0 o F X F.G.H.I.J.K.L.M.N.O.P.P.O.Q.x.z.R.S.T.U.V.:.W.m q ).X.n.;                               ",
"                      @ n.Y.e 8 k C S V.;.Z.u.`. +Q..+++++@+#+#+$+%+&+*+y.=+S.1.;.V ,.C -+r t ~ ;+                              ",
"                      ; n.w r 0 >+,+U '+6.C.)+!+~+{+$+]+^+/+(+_+:+<+$+P.Q.[+j.}+|+8.:.D m 8 ].1+& @                             ",
"                      ' 9.t r j B Y 2+7.3.j.[+3+4+5+:+6+7+8+9+9+0+a+:+$+P.*+b+B.T.-.U F o ` a.w 9.;                             ",
"                      n.~ c+8 k D W =.|+S.d+e+f+^+g+h+i+j+k+l+k+m+i+a+<+$+&+x.A.n+7.V.Y C j r t 9.'                             ",
"                    o+& 1+].8 E.A U -.T.B.b+p+q+r+s+t+u+v+w+x+y+l+u+{+z+A+B+*+z.C+6.8.X B k q.t ~ '                             ",
"                    o+& 1+].0 D+E+V U.4.k.F+O.$+G+H+u+I+x+J+K+L+w+I+M+N+<+O+Q.b+e.1.;.W F m 8 } ~ n.                            ",
"                    ; n.^ ).0 D+,.P+U.C.Q+F+i.R+S+8+T+y+L+U+V+W+X+v+u+Y+Z+O+p+y.B.1.`+U F p 8 ].~ &                             ",
"                    ; n.^ ).0 D+,.P+U.C.Q+F+i.R+S+8+T+y+L+U+V+W+X+v+u+ @Z+O+p+y.B.1.`+U F p 8 ].~ &                             ",
"                    ; & 1+].0 D+E+V U.3.k.x.&+$+G+{+u+.@x+J+K+L++@I+8+@@f+#@Q.b+e.1.;.W F m 8 } ~ n.                            ",
"                    o.& 1+].8 E.A U -.T.B.b+p+#@$@a+%@T+v++@x+y+l+j+&@*@=@-@*+z.C+6.=.X D k q.t ~ ;+                            ",
"                      n.~ c+8 k D X =.;@S.d+e+>@R+G+,@%@u+k+l+m+'@i+)@!@~@.+F+A.n+7.V.,.C j r t !.'                             ",
"                      ' !.t r j B S >.U.3.k.F+Q.%+#+G+a+8+9+j+&@{@M+:+]@^@/@(@B.T.-.U E+o 0 ] < ) ;                             ",
"                      ; n.w a.0 >+,+W '+6.S.d+x._@q+R+<+_+(+a+:@<@[@$+&+}@|@@+3.|+8.:.F m 8 ].1+& @                             ",
"                      @ n.Y.].8 k B Y V.U.T.B.z.x.(@P.%+R+#+#+1@++/@2@e+3@!+h.4@'+V ,.B j a.N ~ n.                              ",
"                        ' 9.< ] 0 '.F X 8.m.3.B.d+y.5@_@&+P.>@P.6@!+M.7@J.)+H.8@9@:.W.H 8 [ 0@n.;                               ",
"                        o.& 1+].q.j C E+W =.m.2.S.j.d+b+F+x.a@x.b@c@v.!+C+d@e@f@g@n E.0 a 1+h@;                                 ",
"                          ' 9.w a.8 k C ,.W 8.-.6.3.l.B.j.k.Q+k.j.i@N.j@k@=.l@d.(.6 b.7 ].!.m@n@                                ",
"                          @ & ~ {.] q k C ,+W V.o@-.|+p@3.4.C.3.T.1.q@r@d.i@E+s@t@u@E } b n.v@                                  ",
"                            o.& ~ t ] q k C F S W V.D.'+-.-.U.-.-.=.V w@O x@:.E.y@Q z@~ !.; A@                                  ",
"                              ; & Y.t ] 8 j B@B F ,.:.W U V V U W X Y V.(.P C@8 $.D@v E@' F@. +                                 ",
"                                ' & ~ < } r 0 G@B@G C D A F E+F A B C B H@/.y h 1+I@4 K r   + .                                 ",
"                                  ; n.J@X.t ] r q I G@k E.o D+o k k I ` a.K@D@g r L@K M@.   . .                                 ",
"                                    o.& N@/ w t ].a.r 8 8 8 8 8 8 7 r a.} r v 4 I@> O@. + . + .                                 ",
"                                        ; n.) ~ X.{.t t P@].].Q@>+} {.w 1+~ R@S@T@U@  + . . + .                                 ",
"                                          > ' & = = ~ ^ ^ ^ b ^ ^ V@W@n.) & 2 X@. .     . . . . .                               ",
"                                                ; ' & & = ) ) ) = & Y@T@Z@      + . .     . . . .                               ",
"                                                            >           . . +     . . +   . . . .                               ",
"                                                                            . . . . . .     . . +                               ",
"                                                                              + . . . . .     . .                               ",
"                                                                                  + . . . .   . + .                             ",
"                                                                                    + . . .     . .                             ",
"                                                                                        . . +     .                             ",
"                                                                                            + .   .                             ",
"                                                                                              .                                 ",
"                                                                                                                                ",
"                                                                                                                                ",
"                                                                                                                                ",
"                                                                                                                                ",
"                                                                                                                                ",
"                                                                                                                                "};
